<svg width="20" height="20" viewBox="0 0 20 20" fill="none" xmlns="http://www.w3.org/2000/svg">
<path fill-rule="evenodd" clip-rule="evenodd" d="M10.5436 0.787275C10.3948 0.65223 10.201 0.577423 10 0.577423C9.79901 0.577423 9.60522 0.65223 9.45636 0.787275L7.58818 2.48182C7.43139 2.62398 7.22513 2.69904 7.01364 2.69091L4.49273 2.59364C4.29189 2.58592 4.09537 2.65323 3.94143 2.78246C3.7875 2.91169 3.68718 3.09359 3.66 3.29273L3.31818 5.79273C3.28919 6.00237 3.17921 6.19231 3.01182 6.32182L1.01818 7.86728C0.859252 7.99039 0.751846 8.16825 0.716891 8.36622C0.681935 8.5642 0.721932 8.76809 0.82909 8.93818L2.17454 11.0727C2.28755 11.252 2.32574 11.4684 2.28091 11.6755L1.74727 14.1409C1.70469 14.3374 1.73677 14.5427 1.83727 14.7168C1.93777 14.8909 2.09948 15.0213 2.29091 15.0827L4.69273 15.8527C4.89462 15.9174 5.06307 16.0588 5.16182 16.2464L6.33727 18.4782C6.43097 18.656 6.58752 18.7926 6.77641 18.8613C6.9653 18.9301 7.17301 18.926 7.35909 18.85L9.69454 17.8955C9.89062 17.8154 10.1103 17.8154 10.3064 17.8955L12.6418 18.85C12.828 18.926 13.0358 18.9299 13.2247 18.861C13.4136 18.7921 13.5701 18.6553 13.6636 18.4773L14.8391 16.2464C14.9378 16.0588 15.1063 15.9174 15.3082 15.8527L17.71 15.0827C17.9014 15.0213 18.0631 14.8909 18.1636 14.7168C18.2641 14.5427 18.2962 14.3374 18.2536 14.1409L17.72 11.6755C17.6752 11.4684 17.7134 11.252 17.8264 11.0727L19.1718 8.93818C19.279 8.76809 19.319 8.5642 19.284 8.36622C19.2491 8.16825 19.1417 7.99039 18.9827 7.86728L16.9882 6.32182C16.8209 6.19193 16.7113 6.00165 16.6827 5.79182L16.3409 3.29182C16.3135 3.09284 16.2131 2.91117 16.0592 2.78212C15.9053 2.65308 15.7089 2.5859 15.5082 2.59364L12.9873 2.69091C12.7758 2.69904 12.5695 2.62398 12.4127 2.48182L10.5436 0.787275ZM14.4282 7.98455C14.4942 7.89562 14.5419 7.79443 14.5684 7.68688C14.5948 7.57933 14.5996 7.46758 14.5824 7.35815C14.5653 7.24873 14.5264 7.14383 14.4682 7.04959C14.41 6.95534 14.3337 6.87363 14.2435 6.80924C14.1534 6.74485 14.0514 6.69906 13.9433 6.67456C13.8353 6.65005 13.7235 6.64732 13.6144 6.66652C13.5053 6.68572 13.4012 6.72646 13.308 6.78638C13.2148 6.84629 13.1345 6.92416 13.0718 7.01546L9.43545 12.1082L7.20909 10.2C7.04039 10.0634 6.82508 9.99805 6.60893 10.0177C6.39278 10.0374 6.19283 10.1406 6.05158 10.3055C5.91034 10.4703 5.83894 10.6836 5.85257 10.9003C5.86619 11.1169 5.96377 11.3196 6.12454 11.4655L9.04182 13.9655C9.12961 14.0407 9.23211 14.0968 9.34279 14.1303C9.45347 14.1637 9.5699 14.1737 9.68467 14.1597C9.79943 14.1457 9.91002 14.1079 10.0094 14.0488C10.1088 13.9897 10.1947 13.9105 10.2618 13.8164L14.4282 7.98364V7.98455Z" fill="#1EEFA4"/>
</svg>
