<svg width="112" height="30" viewBox="0 0 112 30" fill="none" xmlns="http://www.w3.org/2000/svg">
<path d="M9.24909 24.6099H0.892674C0.578585 24.6099 0.347151 24.5429 0.198372 24.409C0.066124 24.2583 0 24.0239 0 23.7058V7.43318C0 7.11509 0.066124 6.88908 0.198372 6.75515C0.347151 6.60448 0.578585 6.52914 0.892674 6.52914H9.24909C11.3155 6.52914 12.8446 6.94768 13.8364 7.78475C14.8448 8.62182 15.349 9.91091 15.349 11.652V19.487C15.349 21.2281 14.8448 22.5172 13.8364 23.3543C12.8446 24.1913 11.3155 24.6099 9.24909 24.6099ZM5.6288 11.3256V19.8637H8.57959C8.97633 19.8637 9.26562 19.7632 9.44746 19.5623C9.64584 19.3614 9.74502 19.0517 9.74502 18.6332V12.5309C9.74502 12.1124 9.64584 11.8111 9.44746 11.6269C9.26562 11.426 8.97633 11.3256 8.57959 11.3256H5.6288Z" fill="black"/>
<path d="M18.5536 24.6099C18.2396 24.6099 18.0081 24.5429 17.8593 24.409C17.7271 24.2583 17.661 24.0239 17.661 23.7058V20.7175C17.661 20.3994 17.7271 20.1734 17.8593 20.0395C18.0081 19.8888 18.2396 19.8134 18.5536 19.8134H20.1229V11.3758H18.5536C18.2396 11.3758 18.0081 11.3088 17.8593 11.1749C17.7271 11.0242 17.661 10.7898 17.661 10.4717V7.43318C17.661 7.11509 17.7271 6.88908 17.8593 6.75515C18.0081 6.60448 18.2396 6.52914 18.5536 6.52914H27.3458C27.6599 6.52914 27.883 6.60448 28.0153 6.75515C28.1641 6.88908 28.2384 7.11509 28.2384 7.43318V10.4717C28.2384 10.7898 28.1641 11.0242 28.0153 11.1749C27.883 11.3088 27.6599 11.3758 27.3458 11.3758H25.8261V19.8134H27.3458C27.6599 19.8134 27.883 19.8888 28.0153 20.0395C28.1641 20.1734 28.2384 20.3994 28.2384 20.7175V23.7058C28.2384 24.0239 28.1641 24.2583 28.0153 24.409C27.883 24.5429 27.6599 24.6099 27.3458 24.6099H18.5536Z" fill="black"/>
<path d="M40.1063 24.6099H31.7499C31.4358 24.6099 31.2044 24.5429 31.0556 24.409C30.9234 24.2583 30.8572 24.0239 30.8572 23.7058V7.43318C30.8572 7.11509 30.9234 6.88908 31.0556 6.75515C31.2044 6.60448 31.4358 6.52914 31.7499 6.52914H40.1063C42.1727 6.52914 43.7018 6.94768 44.6937 7.78475C45.7021 8.62182 46.2063 9.91091 46.2063 11.652V19.487C46.2063 21.2281 45.7021 22.5172 44.6937 23.3543C43.7018 24.1913 42.1727 24.6099 40.1063 24.6099ZM36.486 11.3256V19.8637H39.4368C39.8336 19.8637 40.1229 19.7632 40.3047 19.5623C40.5031 19.3614 40.6023 19.0517 40.6023 18.6332V12.5309C40.6023 12.1124 40.5031 11.8111 40.3047 11.6269C40.1229 11.426 39.8336 11.3256 39.4368 11.3256H36.486Z" fill="black"/>
<path fill-rule="evenodd" clip-rule="evenodd" d="M50.8058 4.80006C49.7234 6.81692 49.7234 9.48339 49.7234 14.8163C49.7234 20.1493 49.7234 22.8157 50.8058 24.8326C51.6525 26.4103 52.9456 27.7034 54.5233 28.5501C56.5402 29.6325 59.2067 29.6325 64.5396 29.6325H97.1853C102.518 29.6325 105.185 29.6325 107.202 28.5501C108.779 27.7034 110.072 26.4103 110.919 24.8326C112.001 22.8157 112.001 20.1493 112.001 14.8163C112.001 9.48339 112.001 6.81692 110.919 4.80006C110.072 3.22234 108.779 1.92927 107.202 1.08256C105.185 0.000183105 102.518 0.000183105 97.1853 0.000183105H64.5396C59.2067 0.000183105 56.5402 0.000183105 54.5233 1.08256C52.9456 1.92927 51.6525 3.22234 50.8058 4.80006ZM90.661 6.02732C90.661 5.47256 91.1107 5.02284 91.6654 5.02284H94.1077C94.6625 5.02284 95.1122 5.47256 95.1122 6.02732V11.0979C96.3563 10.1613 97.9037 9.60615 99.5808 9.60615C103.688 9.60615 107.017 12.9356 107.017 17.0428C107.017 21.1499 103.688 24.4794 99.5808 24.4794C97.9037 24.4794 96.3562 23.9242 95.1122 22.9876C95.1068 23.5378 94.6592 23.9821 94.1077 23.9821H91.6654C91.1107 23.9821 90.661 23.5324 90.661 22.9776V6.02732ZM57.2562 6.02747C57.2562 5.47271 57.7059 5.02298 58.2607 5.02298H60.703C61.2578 5.02298 61.7075 5.4727 61.7075 6.02747V10.6255C62.6061 10.2364 63.5973 10.0207 64.6388 10.0207C68.7161 10.0207 72.0214 13.326 72.0214 17.4033V22.9778C72.0214 23.5325 71.5717 23.9823 71.017 23.9823H68.5687C68.0139 23.9823 67.5642 23.5325 67.5642 22.9778V17.4033C67.5642 15.7877 66.2545 14.4779 64.6388 14.4779C63.0232 14.4779 61.7135 15.7877 61.7135 17.4033V22.9778C61.7135 23.5325 61.2638 23.9823 60.709 23.9823H60.7089L60.703 23.9823H58.2607C57.7059 23.9823 57.2562 23.5326 57.2562 22.9778V22.9778V17.4033V6.02747ZM88.1987 16.9591C88.1987 17.0275 88.1977 17.0958 88.1958 17.1638V23.1338C88.1958 23.6885 87.7461 24.1382 87.1913 24.1382H84.749C84.3438 24.1382 83.9946 23.8983 83.8358 23.5527C82.9762 23.918 82.0306 24.12 81.0377 24.12C77.0828 24.12 73.8768 20.914 73.8768 16.9591V11.6675C73.8768 11.1128 74.3265 10.663 74.8813 10.663L77.3295 10.6631C77.8843 10.6631 78.334 11.1128 78.334 11.6675V16.9591C78.334 18.4523 79.5445 19.6628 81.0377 19.6628C82.5309 19.6628 83.7414 18.4523 83.7414 16.9591V11.6675C83.7414 11.1128 84.1911 10.6631 84.7459 10.6631H87.1942C87.749 10.6631 88.1987 11.1128 88.1987 11.6675V16.9591ZM99.5808 14.0634C97.9353 14.0634 96.6014 15.3973 96.6014 17.0428C96.6014 18.6882 97.9353 20.0221 99.5808 20.0221C101.226 20.0221 102.56 18.6882 102.56 17.0428C102.56 15.3973 101.226 14.0634 99.5808 14.0634Z" fill="black"/>
</svg>
