<svg width="24" height="24" viewBox="0 0 24 24" fill="none" xmlns="http://www.w3.org/2000/svg">
<path d="M5.6539 8.99805C5.96967 7.97617 6.48228 7.01523 7.20404 6.19492C9.7671 3.26523 13.9213 3.26523 16.4844 6.19492L17.1856 7.00117H15.1229C14.397 7.00117 13.8106 7.67148 13.8106 8.50117C13.8106 9.33086 14.397 10.0012 15.1229 10.0012H20.3515H20.3679C21.0938 10.0012 21.6802 9.33086 21.6802 8.50117V2.50117C21.6802 1.67148 21.0938 1.00117 20.3679 1.00117C19.6421 1.00117 19.0556 1.67148 19.0556 2.50117V4.90117L18.338 4.07617C14.7497 -0.0253906 8.93462 -0.0253906 5.34633 4.07617C4.34571 5.21992 3.62396 6.56523 3.18106 8.0043C2.93911 8.78711 3.29999 9.64023 3.98073 9.9168C4.66148 10.1934 5.41195 9.78086 5.6539 9.00274V8.99805ZM2.94321 13.0621C2.73816 13.1324 2.54132 13.259 2.38138 13.4465C2.21735 13.634 2.10662 13.859 2.04921 14.1027C2.03691 14.159 2.02461 14.2199 2.0164 14.2809C2.0041 14.3605 2 14.4402 2 14.5199V20.5012C2 21.3309 2.58643 22.0012 3.31229 22.0012C4.03815 22.0012 4.62458 21.3309 4.62458 20.5012V18.1059L5.34633 18.9262C8.93462 23.023 14.7497 23.023 18.3339 18.9262C19.3345 17.7824 20.0604 16.4371 20.5033 15.0027C20.7452 14.2199 20.3843 13.3668 19.7036 13.0902C19.0228 12.8137 18.2724 13.2262 18.0304 14.0043C17.7146 15.0262 17.202 15.9871 16.4803 16.8074C13.9172 19.7371 9.763 19.7371 7.19994 16.8074L7.19584 16.8027L6.49459 16.0012H8.56144C9.2873 16.0012 9.87373 15.3309 9.87373 14.5012C9.87373 13.6715 9.2873 13.0012 8.56144 13.0012H3.32869C3.26308 13.0012 3.19746 13.0059 3.13185 13.0152C3.06623 13.0246 3.00472 13.0387 2.94321 13.0621Z" fill="white"/>
</svg>
