<svg width="18" height="18" viewBox="0 0 18 18" fill="none" xmlns="http://www.w3.org/2000/svg">
<path d="M3.71964 11.2743L0.302936 10.161C0.302936 10.161 -0.105398 9.99536 0.0260857 9.61969C0.0531523 9.54222 0.107752 9.47631 0.271085 9.36302C1.02814 8.83534 14.2835 4.07102 14.2835 4.07102C14.2835 4.07102 14.6577 3.94491 14.8785 4.02879C14.9331 4.04569 14.9822 4.0768 15.0208 4.11892C15.0595 4.16105 15.0862 4.21268 15.0984 4.26854C15.1222 4.3672 15.1322 4.46871 15.128 4.57012C15.127 4.65786 15.1163 4.73917 15.1083 4.86669C15.0276 6.16927 12.6116 15.8909 12.6116 15.8909C12.6116 15.8909 12.4671 16.4597 11.9492 16.4792C11.8219 16.4833 11.6951 16.4618 11.5764 16.4158C11.4576 16.3699 11.3493 16.3005 11.2579 16.2118C10.2417 15.3376 6.72905 12.977 5.95287 12.4578C5.93536 12.4459 5.92062 12.4304 5.90963 12.4122C5.89864 12.3941 5.89166 12.3739 5.88917 12.3528C5.87832 12.2981 5.93782 12.2303 5.93782 12.2303C5.93782 12.2303 12.0542 6.79367 12.2169 6.22294C12.2295 6.17872 12.1819 6.15691 12.118 6.17627C11.7118 6.32572 4.66954 10.7729 3.8923 11.2638C3.83636 11.2807 3.77722 11.2843 3.71964 11.2743Z" fill="#798DA3"/>
</svg>
